<mxfile host="app.diagrams.net" modified="2023-08-03T09:46:04.030Z" agent="Mozilla/5.0 (X11; Ubuntu; Linux x86_64; rv:109.0) Gecko/20100101 Firefox/115.0" version="21.3.7" etag="CjZS0hy5MEJ95W08ylZR" type="github">
  <diagram name="Page-1" id="Vsdwdfb8pHEf_mP7p3Zj">
    <mxGraphModel>
      <root>
        <mxCell id="0" />
        <mxCell id="1" parent="0" />
      </root>
    </mxGraphModel>
  </diagram>
</mxfile>
